{"title":"Piku (2015) RK Pre DvD Rip - XviD - [1CD] - M-Subs - Team IcTv E","uid":11945337,"size":725857279,"categoryP":"video","categoryS":"other","magnet":"?xt=urn:btih:e1fbfde7442ec12d99cb2457c39c46c7efeb8271&amp;dn=Piku+%282015%29+RK+Pre+DvD+Rip+-+XviD+-+%5B1CD%5D+-+M-Subs+-+Team+IcTv+E&amp;tr=udp%3A%2F%2Ftracker.openbittorrent.com%3A80&amp;tr=udp%3A%2F%2Fopen.demonii.com%3A1337&amp;tr=udp%3A%2F%2Ftracker.coppersurfer.tk%3A6969&amp;tr=udp%3A%2F%2Fexodus.desync.com%3A6969","seeders":21,"leechers":0,"uploader":"SS132203","files":7,"time":1432045542,"description":"Piku (2015) RK Pre DvD Rip - XviD - [1CD] - M-Subs - Team IcTv Exclusive\n &lt;a href=&quot;\nhttp://imgsparrow.co/image/47&quot; rel=&quot;nofollow&quot; target=&quot;_NEW&quot;&gt;\nhttp://imgsparrow.co/image/47&lt;/a&gt;\n &lt;a href=&quot;\nhttp://imgsparrow.co/image/w4&quot; rel=&quot;nofollow&quot; target=&quot;_NEW&quot;&gt;\nhttp://imgsparrow.co/image/w4&lt;/a&gt;\n\nInfo : - \n\nAll Credit Goes To Intellect Clever &amp; IcTv\n\nMovie Info\nBanner : Yrf\nYear : 2015\nCast : Deepika/Amitabh Bachchan - Irfan Khan\nVideo: XVID\nAudio : MP3\nGenre : Comedy-Drama\nSubtitles : ENGLISH-ARABIC-URDU-SPANISH-GERMAN\nResolution : 640 x 272\nRuntime : 1hr 59min xx\nSource : Team IcTv\n\nFormat                                   : AVI\nFormat/Info                              : Audio Video Interleave\nFile size                                : 692 MiB\nDuration                                 : 1h 59mn\nOverall bit rate                         : 807 Kbps\n\nVideo\nID                                       : 0\nFormat                                   : MPEG-4 Visual\nFormat profile                           : Advanced Simple@L5\nFormat settings, BVOP                    : 2\nFormat settings, QPel                    : No\nFormat settings, GMC                     : No warppoints\nFormat settings, Matrix                  : Default (H.263)\nCodec ID                                 : XVID\nCodec ID/Hint                            : XviD\nDuration                                 : 1h 59mn\nBit rate                                 : 671 Kbps\nWidth                                    : 640 pixels\nHeight                                   : 272 pixels\nDisplay aspect ratio                     : 2.35:1\nFrame rate                               : 29.970 fps\nColor space                              : YUV\nChroma subsampling                       : 4:2:0\nBit depth                                : 8 bits\nScan type                                : Progressive\nCompression mode                         : Lossy\nBits/(Pixel*Frame)                       : 0.129\nStream size                              : 576 MiB (83%)\nWriting library                          : XviD 1.2.1 (UTC 2008-12-04)\n\nAudio\nID                                       : 1\nFormat                                   : MPEG Audio\nFormat version                           : Version 1\nFormat profile                           : Layer 3\nMode                                     : Joint stereo\nMode extension                           : MS Stereo\nCodec ID                                 : 55\nCodec ID/Hint                            : MP3\nDuration                                 : 1h 59mn\nBit rate mode                            : Constant\nBit rate                                 : 128 Kbps\nChannel(s)                               : 2 channels\nSampling rate                            : 48.0 KHz\nCompression mode                         : Lossy\nStream size                              : 110 MiB (16%)\n\nScreens : - \n &lt;a href=&quot;\nhttp://imgsparrow.co/image/TD&quot; rel=&quot;nofollow&quot; target=&quot;_NEW&quot;&gt;\nhttp://imgsparrow.co/image/TD&lt;/a&gt; &lt;a href=&quot;\nhttp://imgsparrow.co/image/TG&quot; rel=&quot;nofollow&quot; target=&quot;_NEW&quot;&gt;\nhttp://imgsparrow.co/image/TG&lt;/a&gt; &lt;a href=&quot;\nhttp://imgsparrow.co/image/Te&quot; rel=&quot;nofollow&quot; target=&quot;_NEW&quot;&gt;\nhttp://imgsparrow.co/image/Te&lt;/a&gt; &lt;a href=&quot;\nhttp://imgsparrow.co/image/Tg&quot; rel=&quot;nofollow&quot; target=&quot;_NEW&quot;&gt;\nhttp://imgsparrow.co/image/Tg&lt;/a&gt; &lt;a href=&quot;\nhttp://imgsparrow.co/image/Tq&quot; rel=&quot;nofollow&quot; target=&quot;_NEW&quot;&gt;\nhttp://imgsparrow.co/image/Tq&lt;/a&gt; &lt;a href=&quot;\nhttp://imgsparrow.co/image/Tz&quot; rel=&quot;nofollow&quot; target=&quot;_NEW&quot;&gt;\nhttp://imgsparrow.co/image/Tz&lt;/a&gt; &lt;a href=&quot;\nhttp://imgsparrow.co/image/T7&quot; rel=&quot;nofollow&quot; target=&quot;_NEW&quot;&gt;\nhttp://imgsparrow.co/image/T7&lt;/a&gt; &lt;a href=&quot;\nhttp://imgsparrow.co/image/Tk&quot; rel=&quot;nofollow&quot; target=&quot;_NEW&quot;&gt;\nhttp://imgsparrow.co/image/Tk&lt;/a&gt; &lt;a href=&quot;\nhttp://imgsparrow.co/image/Tn&quot; rel=&quot;nofollow&quot; target=&quot;_NEW&quot;&gt;\nhttp://imgsparrow.co/image/Tn&lt;/a&gt; &lt;a href=&quot;\nhttp://imgsparrow.co/image/Ty&quot; rel=&quot;nofollow&quot; target=&quot;_NEW&quot;&gt;\nhttp://imgsparrow.co/image/Ty&lt;/a&gt;\n &lt;a href=&quot;\nhttp://imgsparrow.co/image/N2&quot; rel=&quot;nofollow&quot; target=&quot;_NEW&quot;&gt;\nhttp://imgsparrow.co/image/N2&lt;/a&gt;","torrent":{"xt":"urn:btih:e1fbfde7442ec12d99cb2457c39c46c7efeb8271","amp;dn":"Piku+%282015%29+RK+Pre+DvD+Rip+-+XviD+-+%5B1CD%5D+-+M-Subs+-+Team+IcTv+E","amp;tr":["udp%3A%2F%2Ftracker.openbittorrent.com%3A80","udp%3A%2F%2Fopen.demonii.com%3A1337","udp%3A%2F%2Ftracker.coppersurfer.tk%3A6969","udp%3A%2F%2Fexodus.desync.com%3A6969"],"infoHash":"e1fbfde7442ec12d99cb2457c39c46c7efeb8271","infoHashBuffer":{"type":"Buffer","data":[225,251,253,231,68,46,193,45,153,203,36,87,195,156,70,199,239,235,130,113]},"announce":[],"urlList":[]}}